solid 칼통
facet normal 0.0 0.0 -1.0
outer loop
vertex 0.0 35.0 0.0
vertex 5.000000000000001 15.0 0.0
vertex 0.0 5.000000000000001 0.0
endloop
endfacet
facet normal 0.0 0.0 -1.0
outer loop
vertex 5.000000000000001 15.0 0.0
vertex 0.0 35.0 0.0
vertex 60.0 35.0 0.0
endloop
endfacet
facet normal 0.0 0.0 -1.0
outer loop
vertex 0.0 5.000000000000001 0.0
vertex 5.000000000000001 15.0 0.0
vertex 0.042775693130948 4.347369038899743 0.0
endloop
endfacet
facet normal 0.0 0.0 -1.0
outer loop
vertex 0.042775693130948 4.347369038899743 0.0
vertex 5.000000000000001 15.0 0.0
vertex 0.17037086855465805 3.705904774487396 0.0
endloop
endfacet
facet normal 0.0 0.0 -1.0
outer loop
vertex 0.17037086855465805 3.705904774487396 0.0
vertex 5.000000000000001 15.0 0.0
vertex 0.3806023374435654 3.086582838174551 0.0
endloop
endfacet
facet normal 0.0 0.0 -1.0
outer loop
vertex 0.3806023374435654 3.086582838174551 0.0
vertex 5.000000000000001 15.0 0.0
vertex 0.6698729810778062 2.499999999999999 0.0
endloop
endfacet
facet normal 0.0 0.0 -1.0
outer loop
vertex 0.6698729810778062 2.499999999999999 0.0
vertex 5.000000000000001 15.0 0.0
vertex 1.033233298543824 1.9561928549563956 0.0
endloop
endfacet
facet normal 0.0 0.0 -1.0
outer loop
vertex 1.033233298543824 1.9561928549563956 0.0
vertex 5.000000000000001 15.0 0.0
vertex 1.4644660940672627 1.4644660940672614 0.0
endloop
endfacet
facet normal 0.0 0.0 -1.0
outer loop
vertex 1.4644660940672627 1.4644660940672614 0.0
vertex 5.000000000000001 15.0 0.0
vertex 1.9561928549563974 1.0332332985438226 0.0
endloop
endfacet
facet normal 0.0 0.0 -1.0
outer loop
vertex 1.9561928549563974 1.0332332985438226 0.0
vertex 5.000000000000001 15.0 0.0
vertex 2.500000000000001 0.6698729810778056 0.0
endloop
endfacet
facet normal 0.0 0.0 -1.0
outer loop
vertex 2.500000000000001 0.6698729810778056 0.0
vertex 5.000000000000001 15.0 0.0
vertex 3.086582838174552 0.3806023374435647 0.0
endloop
endfacet
facet normal 0.0 0.0 -1.0
outer loop
vertex 3.086582838174552 0.3806023374435647 0.0
vertex 5.000000000000001 15.0 0.0
vertex 3.7059047744873976 0.17037086855465736 0.0
endloop
endfacet
facet normal 0.0 0.0 -1.0
outer loop
vertex 3.7059047744873976 0.17037086855465736 0.0
vertex 5.000000000000001 15.0 0.0
vertex 4.3473690388997435 0.04277569313094588 0.0
endloop
endfacet
facet normal 0.0 0.0 -1.0
outer loop
vertex 5.000000000000001 15.0 0.0
vertex 60.0 35.0 0.0
vertex 55.0 15.0 0.0
endloop
endfacet
facet normal 0.0 0.0 -1.0
outer loop
vertex 55.0 15.0 0.0
vertex 60.0 35.0 0.0
vertex 55.0 4.999999999999999 0.0
endloop
endfacet
facet normal 0.0 0.0 -1.0
outer loop
vertex 55.0 4.999999999999999 0.0
vertex 60.0 35.0 0.0
vertex 55.0 -2.8199664825478975e-15 0.0
endloop
endfacet
facet normal 0.0 0.0 -1.0
outer loop
vertex 55.0 -2.8199664825478975e-15 0.0
vertex 60.0 35.0 0.0
vertex 55.65263096110026 0.042775693130944474 0.0
endloop
endfacet
facet normal 0.0 0.0 -1.0
outer loop
vertex 55.65263096110026 0.042775693130944474 0.0
vertex 60.0 35.0 0.0
vertex 56.294095225512606 0.17037086855465525 0.0
endloop
endfacet
facet normal 0.0 0.0 -1.0
outer loop
vertex 56.294095225512606 0.17037086855465525 0.0
vertex 60.0 35.0 0.0
vertex 56.91341716182545 0.3806023374435626 0.0
endloop
endfacet
facet normal 0.0 0.0 -1.0
outer loop
vertex 56.91341716182545 0.3806023374435626 0.0
vertex 60.0 35.0 0.0
vertex 57.49999999999999 0.6698729810778035 0.0
endloop
endfacet
facet normal 0.0 0.0 -1.0
outer loop
vertex 57.49999999999999 0.6698729810778035 0.0
vertex 60.0 35.0 0.0
vertex 58.0438071450436 1.0332332985438217 0.0
endloop
endfacet
facet normal 0.0 0.0 -1.0
outer loop
vertex 58.0438071450436 1.0332332985438217 0.0
vertex 60.0 35.0 0.0
vertex 58.53553390593274 1.4644660940672598 0.0
endloop
endfacet
facet normal 0.0 0.0 -1.0
outer loop
vertex 58.53553390593274 1.4644660940672598 0.0
vertex 60.0 35.0 0.0
vertex 58.96676670145617 1.956192854956395 0.0
endloop
endfacet
facet normal 0.0 0.0 -1.0
outer loop
vertex 58.96676670145617 1.956192854956395 0.0
vertex 60.0 35.0 0.0
vertex 59.330127018922205 2.499999999999999 0.0
endloop
endfacet
facet normal 0.0 0.0 -1.0
outer loop
vertex 59.330127018922205 2.499999999999999 0.0
vertex 60.0 35.0 0.0
vertex 59.61939766255644 3.08658283817455 0.0
endloop
endfacet
facet normal 0.0 0.0 -1.0
outer loop
vertex 59.61939766255644 3.08658283817455 0.0
vertex 60.0 35.0 0.0
vertex 59.82962913144534 3.7059047744873954 0.0
endloop
endfacet
facet normal 0.0 0.0 -1.0
outer loop
vertex 59.82962913144534 3.7059047744873954 0.0
vertex 60.0 35.0 0.0
vertex 59.95722430686905 4.347369038899742 0.0
endloop
endfacet
facet normal 0.0 0.0 -1.0
outer loop
vertex 59.95722430686905 4.347369038899742 0.0
vertex 60.0 35.0 0.0
vertex 60.0 5.0 0.0
endloop
endfacet
facet normal 0.0 0.0 -1.0
outer loop
vertex 4.3473690388997435 0.04277569313094588 0.0
vertex 5.000000000000001 4.999999999999999 0.0
vertex 5.000000000000002 -1.4099832412739487e-15 0.0
endloop
endfacet
facet normal 0.0 0.0 -1.0
outer loop
vertex 5.000000000000001 4.999999999999999 0.0
vertex 4.3473690388997435 0.04277569313094588 0.0
vertex 5.000000000000001 15.0 0.0
endloop
endfacet
facet normal 0.0 0.0 -1.0
outer loop
vertex 5.000000000000002 -1.4099832412739487e-15 0.0
vertex 5.000000000000001 4.999999999999999 0.0
vertex 55.0 4.999999999999999 0.0
endloop
endfacet
facet normal 0.0 0.0 -1.0
outer loop
vertex 5.000000000000002 -1.4099832412739487e-15 0.0
vertex 55.0 4.999999999999999 0.0
vertex 55.0 -2.8199664825478975e-15 0.0
endloop
endfacet
facet normal 6.770651380688362e-33 -4.392717100938226e-32 1.0
outer loop
vertex 0.042775693130948 4.347369038899743 10.0
vertex 0.0 35.0 10.0
vertex 0.0 5.000000000000001 10.0
endloop
endfacet
facet normal 6.770651380688362e-33 -4.392717100938226e-32 1.0
outer loop
vertex 0.0 35.0 10.0
vertex 0.042775693130948 4.347369038899743 10.0
vertex 5.000000000000001 35.0 10.0
endloop
endfacet
facet normal 6.770651380688362e-33 -4.392717100938226e-32 1.0
outer loop
vertex 5.000000000000001 35.0 10.0
vertex 0.042775693130948 4.347369038899743 10.0
vertex 0.17037086855465805 3.705904774487396 10.0
endloop
endfacet
facet normal 6.770651380688362e-33 -4.392717100938226e-32 1.0
outer loop
vertex 5.000000000000001 35.0 10.0
vertex 0.17037086855465805 3.705904774487396 10.0
vertex 0.3806023374435654 3.086582838174551 10.0
endloop
endfacet
facet normal 6.770651380688362e-33 -4.392717100938226e-32 1.0
outer loop
vertex 5.000000000000001 35.0 10.0
vertex 0.3806023374435654 3.086582838174551 10.0
vertex 0.6698729810778062 2.499999999999999 10.0
endloop
endfacet
facet normal 6.770651380688362e-33 -4.392717100938226e-32 1.0
outer loop
vertex 5.000000000000001 35.0 10.0
vertex 0.6698729810778062 2.499999999999999 10.0
vertex 1.033233298543824 1.9561928549563956 10.0
endloop
endfacet
facet normal 6.770651380688362e-33 -4.392717100938226e-32 1.0
outer loop
vertex 5.000000000000001 35.0 10.0
vertex 1.033233298543824 1.9561928549563956 10.0
vertex 1.4644660940672627 1.4644660940672614 10.0
endloop
endfacet
facet normal 6.770651380688362e-33 -4.392717100938226e-32 1.0
outer loop
vertex 5.000000000000001 35.0 10.0
vertex 1.4644660940672627 1.4644660940672614 10.0
vertex 1.9561928549563974 1.0332332985438226 10.0
endloop
endfacet
facet normal 6.770651380688362e-33 -4.392717100938226e-32 1.0
outer loop
vertex 5.000000000000001 35.0 10.0
vertex 1.9561928549563974 1.0332332985438226 10.0
vertex 2.500000000000001 0.6698729810778056 10.0
endloop
endfacet
facet normal 6.770651380688362e-33 -4.392717100938226e-32 1.0
outer loop
vertex 5.000000000000001 35.0 10.0
vertex 2.500000000000001 0.6698729810778056 10.0
vertex 3.086582838174552 0.3806023374435647 10.0
endloop
endfacet
facet normal 6.770651380688362e-33 -4.392717100938226e-32 1.0
outer loop
vertex 5.000000000000001 35.0 10.0
vertex 3.086582838174552 0.3806023374435647 10.0
vertex 3.7059047744873976 0.17037086855465736 10.0
endloop
endfacet
facet normal 6.770651380688362e-33 -4.392717100938226e-32 1.0
outer loop
vertex 5.000000000000001 35.0 10.0
vertex 3.7059047744873976 0.17037086855465736 10.0
vertex 4.3473690388997435 0.04277569313094588 10.0
endloop
endfacet
facet normal 6.770651380688362e-33 -4.392717100938226e-32 1.0
outer loop
vertex 5.000000000000001 35.0 10.0
vertex 4.3473690388997435 0.04277569313094588 10.0
vertex 5.000000000000001 4.999999999999999 10.0
endloop
endfacet
facet normal 6.770651380688362e-33 -4.392717100938226e-32 1.0
outer loop
vertex 5.000000000000001 35.0 10.0
vertex 5.000000000000001 4.999999999999999 10.0
vertex 5.000000000000001 15.0 10.0
endloop
endfacet
facet normal 6.770651380688362e-33 -4.392717100938226e-32 1.0
outer loop
vertex 5.000000000000001 35.0 10.0
vertex 5.000000000000001 15.0 10.0
vertex 5.000000000000001 30.0 10.0
endloop
endfacet
facet normal 6.770651380688362e-33 -4.392717100938226e-32 1.0
outer loop
vertex 5.000000000000002 -1.4099832412739487e-15 10.0
vertex 5.000000000000001 4.999999999999999 10.0
vertex 4.3473690388997435 0.04277569313094588 10.0
endloop
endfacet
facet normal 6.770651380688362e-33 -4.392717100938226e-32 1.0
outer loop
vertex 5.000000000000001 4.999999999999999 10.0
vertex 5.000000000000002 -1.4099832412739487e-15 10.0
vertex 55.0 4.999999999999999 10.0
endloop
endfacet
facet normal 6.770651380688362e-33 -4.392717100938226e-32 1.0
outer loop
vertex 55.0 4.999999999999999 10.0
vertex 5.000000000000002 -1.4099832412739487e-15 10.0
vertex 55.0 -2.8199664825478975e-15 10.0
endloop
endfacet
facet normal 6.770651380688362e-33 -4.392717100938226e-32 1.0
outer loop
vertex 55.0 4.999999999999999 10.0
vertex 55.0 -2.8199664825478975e-15 10.0
vertex 55.65263096110026 0.042775693130944474 10.0
endloop
endfacet
facet normal 6.770651380688362e-33 -4.392717100938226e-32 1.0
outer loop
vertex 55.0 4.999999999999999 10.0
vertex 55.65263096110026 0.042775693130944474 10.0
vertex 55.0 15.0 10.0
endloop
endfacet
facet normal 6.770651380688362e-33 -4.392717100938226e-32 1.0
outer loop
vertex 55.0 15.0 10.0
vertex 55.65263096110026 0.042775693130944474 10.0
vertex 55.0 30.0 10.0
endloop
endfacet
facet normal 6.770651380688362e-33 -4.392717100938226e-32 1.0
outer loop
vertex 55.0 30.0 10.0
vertex 55.65263096110026 0.042775693130944474 10.0
vertex 55.0 35.0 10.0
endloop
endfacet
facet normal 6.770651380688362e-33 -4.392717100938226e-32 1.0
outer loop
vertex 55.0 35.0 10.0
vertex 55.65263096110026 0.042775693130944474 10.0
vertex 60.0 35.0 10.0
endloop
endfacet
facet normal 6.770651380688362e-33 -4.392717100938226e-32 1.0
outer loop
vertex 60.0 35.0 10.0
vertex 55.65263096110026 0.042775693130944474 10.0
vertex 56.294095225512606 0.17037086855465525 10.0
endloop
endfacet
facet normal 6.770651380688362e-33 -4.392717100938226e-32 1.0
outer loop
vertex 60.0 35.0 10.0
vertex 56.294095225512606 0.17037086855465525 10.0
vertex 56.91341716182545 0.3806023374435626 10.0
endloop
endfacet
facet normal 6.770651380688362e-33 -4.392717100938226e-32 1.0
outer loop
vertex 60.0 35.0 10.0
vertex 56.91341716182545 0.3806023374435626 10.0
vertex 57.49999999999999 0.6698729810778035 10.0
endloop
endfacet
facet normal 6.770651380688362e-33 -4.392717100938226e-32 1.0
outer loop
vertex 60.0 35.0 10.0
vertex 57.49999999999999 0.6698729810778035 10.0
vertex 58.0438071450436 1.0332332985438217 10.0
endloop
endfacet
facet normal 6.770651380688362e-33 -4.392717100938226e-32 1.0
outer loop
vertex 60.0 35.0 10.0
vertex 58.0438071450436 1.0332332985438217 10.0
vertex 58.53553390593274 1.4644660940672598 10.0
endloop
endfacet
facet normal 6.770651380688362e-33 -4.392717100938226e-32 1.0
outer loop
vertex 60.0 35.0 10.0
vertex 58.53553390593274 1.4644660940672598 10.0
vertex 58.96676670145617 1.956192854956395 10.0
endloop
endfacet
facet normal 6.770651380688362e-33 -4.392717100938226e-32 1.0
outer loop
vertex 60.0 35.0 10.0
vertex 58.96676670145617 1.956192854956395 10.0
vertex 59.330127018922205 2.499999999999999 10.0
endloop
endfacet
facet normal 6.770651380688362e-33 -4.392717100938226e-32 1.0
outer loop
vertex 60.0 35.0 10.0
vertex 59.330127018922205 2.499999999999999 10.0
vertex 59.61939766255644 3.08658283817455 10.0
endloop
endfacet
facet normal 6.770651380688362e-33 -4.392717100938226e-32 1.0
outer loop
vertex 60.0 35.0 10.0
vertex 59.61939766255644 3.08658283817455 10.0
vertex 59.82962913144534 3.7059047744873954 10.0
endloop
endfacet
facet normal 6.770651380688362e-33 -4.392717100938226e-32 1.0
outer loop
vertex 60.0 35.0 10.0
vertex 59.82962913144534 3.7059047744873954 10.0
vertex 59.95722430686905 4.347369038899742 10.0
endloop
endfacet
facet normal 6.770651380688362e-33 -4.392717100938226e-32 1.0
outer loop
vertex 60.0 35.0 10.0
vertex 59.95722430686905 4.347369038899742 10.0
vertex 60.0 5.0 10.0
endloop
endfacet
facet normal 6.770651380688362e-33 -4.392717100938226e-32 1.0
outer loop
vertex 55.0 15.0 10.0
vertex 5.000000000000001 30.0 10.0
vertex 5.000000000000001 15.0 10.0
endloop
endfacet
facet normal 6.770651380688362e-33 -4.392717100938226e-32 1.0
outer loop
vertex 5.000000000000001 30.0 10.0
vertex 55.0 15.0 10.0
vertex 14.999999999999998 30.0 10.0
endloop
endfacet
facet normal 6.770651380688362e-33 -4.392717100938226e-32 1.0
outer loop
vertex 14.999999999999998 30.0 10.0
vertex 55.0 15.0 10.0
vertex 14.999999999999998 35.0 10.0
endloop
endfacet
facet normal 6.770651380688362e-33 -4.392717100938226e-32 1.0
outer loop
vertex 14.999999999999998 35.0 10.0
vertex 55.0 15.0 10.0
vertex 45.0 30.0 10.0
endloop
endfacet
facet normal 6.770651380688362e-33 -4.392717100938226e-32 1.0
outer loop
vertex 45.0 30.0 10.0
vertex 55.0 15.0 10.0
vertex 55.0 30.0 10.0
endloop
endfacet
facet normal 6.770651380688362e-33 -4.392717100938226e-32 1.0
outer loop
vertex 45.0 35.0 10.0
vertex 14.999999999999998 35.0 10.0
vertex 45.0 30.0 10.0
endloop
endfacet
facet normal -0.9978589232386036 -0.0654031292301431 -0.0
outer loop
vertex 0.0 5.000000000000001 10.0
vertex 0.042775693130948 4.347369038899743 0.0
vertex 0.042775693130948 4.347369038899743 10.0
endloop
endfacet
facet normal -0.9914448613738105 -0.13052619222005116 0.0
outer loop
vertex 0.042775693130948 4.347369038899743 0.0
vertex 0.0 5.000000000000001 10.0
vertex 0.0 5.000000000000001 0.0
endloop
endfacet
facet normal -1.0 0.0 0.0
outer loop
vertex 0.0 35.0 10.0
vertex 0.0 5.000000000000001 0.0
vertex 0.0 5.000000000000001 10.0
endloop
endfacet
facet normal -1.0 0.0 0.0
outer loop
vertex 0.0 5.000000000000001 0.0
vertex 0.0 35.0 10.0
vertex 0.0 35.0 0.0
endloop
endfacet
facet normal -0.0 1.0 -0.0
outer loop
vertex 5.000000000000001 35.0 17.0
vertex 14.999999999999998 35.0 10.0
vertex 5.000000000000001 35.0 10.0
endloop
endfacet
facet normal -0.0 1.0 -0.0
outer loop
vertex 14.999999999999998 35.0 10.0
vertex 5.000000000000001 35.0 17.0
vertex 14.999999999999998 35.0 17.0
endloop
endfacet
facet normal -0.0 1.0 -0.0
outer loop
vertex 45.0 35.0 17.0
vertex 55.0 35.0 10.0
vertex 45.0 35.0 10.0
endloop
endfacet
facet normal -0.0 1.0 -0.0
outer loop
vertex 55.0 35.0 10.0
vertex 45.0 35.0 17.0
vertex 55.0 35.0 17.0
endloop
endfacet
facet normal -0.0 1.0 -0.0
outer loop
vertex 0.0 35.0 10.0
vertex 60.0 35.0 0.0
vertex 0.0 35.0 0.0
endloop
endfacet
facet normal -0.0 1.0 -0.0
outer loop
vertex 60.0 35.0 0.0
vertex 0.0 35.0 10.0
vertex 60.0 35.0 10.0
endloop
endfacet
facet normal -0.0 1.0 -0.0
outer loop
vertex 60.0 35.0 10.0
vertex 0.0 35.0 10.0
vertex 5.000000000000001 35.0 10.0
endloop
endfacet
facet normal -0.0 1.0 -0.0
outer loop
vertex 60.0 35.0 10.0
vertex 5.000000000000001 35.0 10.0
vertex 14.999999999999998 35.0 10.0
endloop
endfacet
facet normal -0.0 1.0 -0.0
outer loop
vertex 60.0 35.0 10.0
vertex 14.999999999999998 35.0 10.0
vertex 45.0 35.0 10.0
endloop
endfacet
facet normal -0.0 1.0 -0.0
outer loop
vertex 60.0 35.0 10.0
vertex 45.0 35.0 10.0
vertex 55.0 35.0 10.0
endloop
endfacet
facet normal 1.0 0.0 0.0
outer loop
vertex 60.0 35.0 0.0
vertex 60.0 5.0 10.0
vertex 60.0 5.0 0.0
endloop
endfacet
facet normal 1.0 0.0 0.0
outer loop
vertex 60.0 5.0 10.0
vertex 60.0 35.0 0.0
vertex 60.0 35.0 10.0
endloop
endfacet
facet normal 0.9978589232386033 -0.06540312923014739 0.0
outer loop
vertex 60.0 5.0 0.0
vertex 59.95722430686905 4.347369038899742 10.0
vertex 59.95722430686905 4.347369038899742 0.0
endloop
endfacet
facet normal 0.9914448613738099 -0.1305261922200559 0.0
outer loop
vertex 59.95722430686905 4.347369038899742 10.0
vertex 60.0 5.0 0.0
vertex 60.0 5.0 10.0
endloop
endfacet
facet normal 0.9914448613738099 -0.1305261922200559 0.0
outer loop
vertex 59.95722430686905 4.347369038899742 0.0
vertex 59.82962913144534 3.7059047744873954 10.0
vertex 59.82962913144534 3.7059047744873954 0.0
endloop
endfacet
facet normal 0.9659258262890693 -0.2588190451025167 0.0
outer loop
vertex 59.82962913144534 3.7059047744873954 10.0
vertex 59.95722430686905 4.347369038899742 0.0
vertex 59.95722430686905 4.347369038899742 10.0
endloop
endfacet
facet normal 0.9659258262890693 -0.2588190451025167 0.0
outer loop
vertex 59.82962913144534 3.7059047744873954 0.0
vertex 59.61939766255644 3.08658283817455 10.0
vertex 59.61939766255644 3.08658283817455 0.0
endloop
endfacet
facet normal 0.92387953251129 -0.3826834323650819 0.0
outer loop
vertex 59.61939766255644 3.08658283817455 10.0
vertex 59.82962913144534 3.7059047744873954 0.0
vertex 59.82962913144534 3.7059047744873954 10.0
endloop
endfacet
facet normal 0.92387953251129 -0.3826834323650819 0.0
outer loop
vertex 59.61939766255644 3.08658283817455 0.0
vertex 59.330127018922205 2.499999999999999 10.0
vertex 59.330127018922205 2.499999999999999 0.0
endloop
endfacet
facet normal 0.8660254037844367 -0.5000000000000033 0.0
outer loop
vertex 59.330127018922205 2.499999999999999 10.0
vertex 59.61939766255644 3.08658283817455 0.0
vertex 59.61939766255644 3.08658283817455 10.0
endloop
endfacet
facet normal 0.8660254037844367 -0.5000000000000033 0.0
outer loop
vertex 59.330127018922205 2.499999999999999 0.0
vertex 58.96676670145617 1.956192854956395 10.0
vertex 58.96676670145617 1.956192854956395 0.0
endloop
endfacet
facet normal 0.7933533402912315 -0.6087614290087255 0.0
outer loop
vertex 58.96676670145617 1.956192854956395 10.0
vertex 59.330127018922205 2.499999999999999 0.0
vertex 59.330127018922205 2.499999999999999 10.0
endloop
endfacet
facet normal 0.7933533402912315 -0.6087614290087255 0.0
outer loop
vertex 58.96676670145617 1.956192854956395 0.0
vertex 58.53553390593274 1.4644660940672598 10.0
vertex 58.53553390593274 1.4644660940672598 0.0
endloop
endfacet
facet normal 0.7071067811865481 -0.707106781186547 0.0
outer loop
vertex 58.53553390593274 1.4644660940672598 10.0
vertex 58.96676670145617 1.956192854956395 0.0
vertex 58.96676670145617 1.956192854956395 10.0
endloop
endfacet
facet normal 0.7071067811865481 -0.707106781186547 0.0
outer loop
vertex 58.53553390593274 1.4644660940672598 10.0
vertex 58.0438071450436 1.0332332985438217 0.0
vertex 58.53553390593274 1.4644660940672598 0.0
endloop
endfacet
facet normal 0.6087614290087204 -0.7933533402912353 0.0
outer loop
vertex 58.0438071450436 1.0332332985438217 0.0
vertex 58.53553390593274 1.4644660940672598 10.0
vertex 58.0438071450436 1.0332332985438217 10.0
endloop
endfacet
facet normal 0.6087614290087204 -0.7933533402912353 0.0
outer loop
vertex 58.0438071450436 1.0332332985438217 10.0
vertex 57.49999999999999 0.6698729810778035 0.0
vertex 58.0438071450436 1.0332332985438217 0.0
endloop
endfacet
facet normal 0.5000000000000006 -0.8660254037844384 0.0
outer loop
vertex 57.49999999999999 0.6698729810778035 0.0
vertex 58.0438071450436 1.0332332985438217 10.0
vertex 57.49999999999999 0.6698729810778035 10.0
endloop
endfacet
facet normal 0.5000000000000006 -0.8660254037844384 0.0
outer loop
vertex 57.49999999999999 0.6698729810778035 10.0
vertex 56.91341716182545 0.3806023374435626 0.0
vertex 57.49999999999999 0.6698729810778035 0.0
endloop
endfacet
facet normal 0.38268343236509095 -0.9238795325112863 0.0
outer loop
vertex 56.91341716182545 0.3806023374435626 0.0
vertex 57.49999999999999 0.6698729810778035 10.0
vertex 56.91341716182545 0.3806023374435626 10.0
endloop
endfacet
facet normal 0.38268343236509095 -0.9238795325112863 0.0
outer loop
vertex 56.91341716182545 0.3806023374435626 10.0
vertex 56.294095225512606 0.17037086855465525 0.0
vertex 56.91341716182545 0.3806023374435626 0.0
endloop
endfacet
facet normal 0.25881904510251996 -0.9659258262890685 0.0
outer loop
vertex 56.294095225512606 0.17037086855465525 0.0
vertex 56.91341716182545 0.3806023374435626 10.0
vertex 56.294095225512606 0.17037086855465525 10.0
endloop
endfacet
facet normal 0.25881904510251996 -0.9659258262890685 0.0
outer loop
vertex 56.294095225512606 0.17037086855465525 10.0
vertex 55.65263096110026 0.042775693130944474 0.0
vertex 56.294095225512606 0.17037086855465525 0.0
endloop
endfacet
facet normal 0.13052619222005096 -0.9914448613738105 0.0
outer loop
vertex 55.65263096110026 0.042775693130944474 0.0
vertex 56.294095225512606 0.17037086855465525 10.0
vertex 55.65263096110026 0.042775693130944474 10.0
endloop
endfacet
facet normal 0.13052619222005096 -0.9914448613738105 0.0
outer loop
vertex 55.65263096110026 0.042775693130944474 10.0
vertex 55.0 -2.8199664825478975e-15 0.0
vertex 55.65263096110026 0.042775693130944474 0.0
endloop
endfacet
facet normal 0.06540312923014252 -0.9978589232386036 0.0
outer loop
vertex 55.0 -2.8199664825478975e-15 0.0
vertex 55.65263096110026 0.042775693130944474 10.0
vertex 55.0 -2.8199664825478975e-15 10.0
endloop
endfacet
facet normal -2.8199664825478977e-17 -1.0 -0.0
outer loop
vertex 55.0 -2.8199664825478975e-15 10.0
vertex 5.000000000000002 -1.4099832412739487e-15 0.0
vertex 55.0 -2.8199664825478975e-15 0.0
endloop
endfacet
facet normal -2.8199664825478977e-17 -1.0 -0.0
outer loop
vertex 5.000000000000002 -1.4099832412739487e-15 0.0
vertex 55.0 -2.8199664825478975e-15 10.0
vertex 5.000000000000002 -1.4099832412739487e-15 10.0
endloop
endfacet
facet normal -0.06540312923014202 -0.9978589232386036 -0.0
outer loop
vertex 5.000000000000002 -1.4099832412739487e-15 10.0
vertex 4.3473690388997435 0.04277569313094588 0.0
vertex 5.000000000000002 -1.4099832412739487e-15 0.0
endloop
endfacet
facet normal -0.13052619222005166 -0.9914448613738104 0.0
outer loop
vertex 4.3473690388997435 0.04277569313094588 0.0
vertex 5.000000000000002 -1.4099832412739487e-15 10.0
vertex 4.3473690388997435 0.04277569313094588 10.0
endloop
endfacet
facet normal -0.13052619222005166 -0.9914448613738104 0.0
outer loop
vertex 4.3473690388997435 0.04277569313094588 10.0
vertex 3.7059047744873976 0.17037086855465736 0.0
vertex 4.3473690388997435 0.04277569313094588 0.0
endloop
endfacet
facet normal -0.258819045102521 -0.9659258262890682 0.0
outer loop
vertex 3.7059047744873976 0.17037086855465736 0.0
vertex 4.3473690388997435 0.04277569313094588 10.0
vertex 3.7059047744873976 0.17037086855465736 10.0
endloop
endfacet
facet normal -0.258819045102521 -0.9659258262890682 0.0
outer loop
vertex 3.7059047744873976 0.17037086855465736 10.0
vertex 3.086582838174552 0.3806023374435647 0.0
vertex 3.7059047744873976 0.17037086855465736 0.0
endloop
endfacet
facet normal -0.3826834323650896 -0.9238795325112867 0.0
outer loop
vertex 3.086582838174552 0.3806023374435647 0.0
vertex 3.7059047744873976 0.17037086855465736 10.0
vertex 3.086582838174552 0.3806023374435647 10.0
endloop
endfacet
facet normal -0.3826834323650896 -0.9238795325112867 0.0
outer loop
vertex 3.086582838174552 0.3806023374435647 10.0
vertex 2.500000000000001 0.6698729810778056 0.0
vertex 3.086582838174552 0.3806023374435647 0.0
endloop
endfacet
facet normal -0.4999999999999998 -0.8660254037844387 0.0
outer loop
vertex 2.500000000000001 0.6698729810778056 0.0
vertex 3.086582838174552 0.3806023374435647 10.0
vertex 2.500000000000001 0.6698729810778056 10.0
endloop
endfacet
facet normal -0.4999999999999998 -0.8660254037844387 0.0
outer loop
vertex 2.500000000000001 0.6698729810778056 10.0
vertex 1.9561928549563974 1.0332332985438226 0.0
vertex 2.500000000000001 0.6698729810778056 0.0
endloop
endfacet
facet normal -0.6087614290087205 -0.7933533402912353 0.0
outer loop
vertex 1.9561928549563974 1.0332332985438226 0.0
vertex 2.500000000000001 0.6698729810778056 10.0
vertex 1.9561928549563974 1.0332332985438226 10.0
endloop
endfacet
facet normal -0.6087614290087205 -0.7933533402912353 0.0
outer loop
vertex 1.9561928549563974 1.0332332985438226 10.0
vertex 1.4644660940672627 1.4644660940672614 0.0
vertex 1.9561928549563974 1.0332332985438226 0.0
endloop
endfacet
facet normal -0.7071067811865475 -0.7071067811865476 0.0
outer loop
vertex 1.4644660940672627 1.4644660940672614 0.0
vertex 1.9561928549563974 1.0332332985438226 10.0
vertex 1.4644660940672627 1.4644660940672614 10.0
endloop
endfacet
facet normal -0.793353340291235 -0.6087614290087209 0.0
outer loop
vertex 1.033233298543824 1.9561928549563956 10.0
vertex 1.4644660940672627 1.4644660940672614 0.0
vertex 1.4644660940672627 1.4644660940672614 10.0
endloop
endfacet
facet normal -0.7071067811865475 -0.7071067811865476 0.0
outer loop
vertex 1.4644660940672627 1.4644660940672614 0.0
vertex 1.033233298543824 1.9561928549563956 10.0
vertex 1.033233298543824 1.9561928549563956 0.0
endloop
endfacet
facet normal -0.8660254037844387 -0.5 0.0
outer loop
vertex 0.6698729810778062 2.499999999999999 10.0
vertex 1.033233298543824 1.9561928549563956 0.0
vertex 1.033233298543824 1.9561928549563956 10.0
endloop
endfacet
facet normal -0.793353340291235 -0.6087614290087209 0.0
outer loop
vertex 1.033233298543824 1.9561928549563956 0.0
vertex 0.6698729810778062 2.499999999999999 10.0
vertex 0.6698729810778062 2.499999999999999 0.0
endloop
endfacet
facet normal -0.9238795325112867 -0.3826834323650895 0.0
outer loop
vertex 0.3806023374435654 3.086582838174551 10.0
vertex 0.6698729810778062 2.499999999999999 0.0
vertex 0.6698729810778062 2.499999999999999 10.0
endloop
endfacet
facet normal -0.8660254037844387 -0.5 0.0
outer loop
vertex 0.6698729810778062 2.499999999999999 0.0
vertex 0.3806023374435654 3.086582838174551 10.0
vertex 0.3806023374435654 3.086582838174551 0.0
endloop
endfacet
facet normal -0.9659258262890685 -0.25881904510252013 0.0
outer loop
vertex 0.17037086855465805 3.705904774487396 10.0
vertex 0.3806023374435654 3.086582838174551 0.0
vertex 0.3806023374435654 3.086582838174551 10.0
endloop
endfacet
facet normal -0.9238795325112867 -0.3826834323650895 0.0
outer loop
vertex 0.3806023374435654 3.086582838174551 0.0
vertex 0.17037086855465805 3.705904774487396 10.0
vertex 0.17037086855465805 3.705904774487396 0.0
endloop
endfacet
facet normal -0.9914448613738105 -0.13052619222005116 0.0
outer loop
vertex 0.042775693130948 4.347369038899743 10.0
vertex 0.17037086855465805 3.705904774487396 0.0
vertex 0.17037086855465805 3.705904774487396 10.0
endloop
endfacet
facet normal -0.9659258262890685 -0.25881904510252013 0.0
outer loop
vertex 0.17037086855465805 3.705904774487396 0.0
vertex 0.042775693130948 4.347369038899743 10.0
vertex 0.042775693130948 4.347369038899743 0.0
endloop
endfacet
facet normal -0.0 -1.0 -0.0
outer loop
vertex 55.0 15.0 10.0
vertex 5.000000000000001 15.0 0.0
vertex 55.0 15.0 0.0
endloop
endfacet
facet normal -0.0 -1.0 -0.0
outer loop
vertex 5.000000000000001 15.0 0.0
vertex 55.0 15.0 10.0
vertex 5.000000000000001 15.0 10.0
endloop
endfacet
facet normal 1.0 0.0 0.0
outer loop
vertex 5.000000000000001 15.0 0.0
vertex 5.000000000000001 4.999999999999999 10.0
vertex 5.000000000000001 4.999999999999999 0.0
endloop
endfacet
facet normal 1.0 0.0 0.0
outer loop
vertex 5.000000000000001 4.999999999999999 10.0
vertex 5.000000000000001 15.0 0.0
vertex 5.000000000000001 15.0 10.0
endloop
endfacet
facet normal -0.0 1.0 0.0
outer loop
vertex 5.000000000000001 4.999999999999999 10.0
vertex 55.0 4.999999999999999 0.0
vertex 5.000000000000001 4.999999999999999 0.0
endloop
endfacet
facet normal -0.0 1.0 0.0
outer loop
vertex 55.0 4.999999999999999 0.0
vertex 5.000000000000001 4.999999999999999 10.0
vertex 55.0 4.999999999999999 10.0
endloop
endfacet
facet normal -1.0 0.0 0.0
outer loop
vertex 55.0 15.0 10.0
vertex 55.0 4.999999999999999 0.0
vertex 55.0 4.999999999999999 10.0
endloop
endfacet
facet normal -1.0 0.0 0.0
outer loop
vertex 55.0 4.999999999999999 0.0
vertex 55.0 15.0 10.0
vertex 55.0 15.0 0.0
endloop
endfacet
facet normal 0.0 0.0 1.0
outer loop
vertex 14.999999999999998 30.0 17.0
vertex 5.000000000000001 35.0 17.0
vertex 5.000000000000001 30.0 17.0
endloop
endfacet
facet normal 0.0 0.0 1.0
outer loop
vertex 5.000000000000001 35.0 17.0
vertex 14.999999999999998 30.0 17.0
vertex 14.999999999999998 35.0 17.0
endloop
endfacet
facet normal -1.0 -0.0 -0.0
outer loop
vertex 5.000000000000001 35.0 17.0
vertex 5.000000000000001 30.0 10.0
vertex 5.000000000000001 30.0 17.0
endloop
endfacet
facet normal -1.0 -0.0 -0.0
outer loop
vertex 5.000000000000001 30.0 10.0
vertex 5.000000000000001 35.0 17.0
vertex 5.000000000000001 35.0 10.0
endloop
endfacet
facet normal 0.0 -1.0 0.0
outer loop
vertex 14.999999999999998 30.0 10.0
vertex 10.51763809020504 30.0 11.568148347421864
vertex 5.000000000000001 30.0 10.0
endloop
endfacet
facet normal 0.0 -1.0 0.0
outer loop
vertex 10.51763809020504 30.0 11.568148347421864
vertex 14.999999999999998 30.0 10.0
vertex 11.0 30.0 11.767949192431125
endloop
endfacet
facet normal 0.0 -1.0 0.0
outer loop
vertex 11.0 30.0 11.767949192431125
vertex 14.999999999999998 30.0 10.0
vertex 11.414213562373092 30.0 12.085786437626906
endloop
endfacet
facet normal 0.0 -1.0 0.0
outer loop
vertex 11.414213562373092 30.0 12.085786437626906
vertex 14.999999999999998 30.0 10.0
vertex 11.732050807568875 30.0 12.500000000000002
endloop
endfacet
facet normal 0.0 -1.0 0.0
outer loop
vertex 11.732050807568875 30.0 12.500000000000002
vertex 14.999999999999998 30.0 10.0
vertex 14.999999999999998 30.0 17.0
endloop
endfacet
facet normal 0.0 -1.0 0.0
outer loop
vertex 5.000000000000001 30.0 10.0
vertex 10.51763809020504 30.0 11.568148347421864
vertex 9.999999999999998 30.0 11.500000000000002
endloop
endfacet
facet normal 0.0 -1.0 0.0
outer loop
vertex 11.732050807568875 30.0 12.500000000000002
vertex 14.999999999999998 30.0 17.0
vertex 11.931851652578134 30.0 12.98236190979496
endloop
endfacet
facet normal 0.0 -1.0 0.0
outer loop
vertex 11.931851652578134 30.0 12.98236190979496
vertex 14.999999999999998 30.0 17.0
vertex 11.999999999999998 30.0 13.5
endloop
endfacet
facet normal 0.0 -1.0 0.0
outer loop
vertex 11.999999999999998 30.0 13.5
vertex 14.999999999999998 30.0 17.0
vertex 11.931851652578134 30.0 14.017638090205043
endloop
endfacet
facet normal 0.0 -1.0 0.0
outer loop
vertex 11.931851652578134 30.0 14.017638090205043
vertex 14.999999999999998 30.0 17.0
vertex 11.732050807568875 30.0 14.500000000000002
endloop
endfacet
facet normal 0.0 -1.0 0.0
outer loop
vertex 11.732050807568875 30.0 14.500000000000002
vertex 14.999999999999998 30.0 17.0
vertex 11.414213562373092 30.0 14.914213562373096
endloop
endfacet
facet normal 0.0 -1.0 0.0
outer loop
vertex 11.414213562373092 30.0 14.914213562373096
vertex 14.999999999999998 30.0 17.0
vertex 10.999999999999998 30.0 15.232050807568877
endloop
endfacet
facet normal 0.0 -1.0 0.0
outer loop
vertex 10.999999999999998 30.0 15.232050807568877
vertex 14.999999999999998 30.0 17.0
vertex 10.51763809020504 30.0 15.431851652578136
endloop
endfacet
facet normal 0.0 -1.0 0.0
outer loop
vertex 10.51763809020504 30.0 15.431851652578136
vertex 14.999999999999998 30.0 17.0
vertex 9.999999999999998 30.0 15.5
endloop
endfacet
facet normal 0.0 -1.0 0.0
outer loop
vertex 5.000000000000001 30.0 10.0
vertex 8.267949192431123 30.0 12.5
vertex 5.000000000000001 30.0 17.0
endloop
endfacet
facet normal 0.0 -1.0 0.0
outer loop
vertex 8.267949192431123 30.0 12.5
vertex 5.000000000000001 30.0 10.0
vertex 8.585786437626906 30.0 12.085786437626904
endloop
endfacet
facet normal 0.0 -1.0 0.0
outer loop
vertex 8.585786437626906 30.0 12.085786437626904
vertex 5.000000000000001 30.0 10.0
vertex 8.999999999999998 30.0 11.767949192431123
endloop
endfacet
facet normal 0.0 -1.0 0.0
outer loop
vertex 8.999999999999998 30.0 11.767949192431123
vertex 5.000000000000001 30.0 10.0
vertex 9.482361909794959 30.0 11.568148347421864
endloop
endfacet
facet normal 0.0 -1.0 0.0
outer loop
vertex 9.482361909794959 30.0 11.568148347421864
vertex 5.000000000000001 30.0 10.0
vertex 9.999999999999998 30.0 11.500000000000002
endloop
endfacet
facet normal 0.0 -1.0 0.0
outer loop
vertex 5.000000000000001 30.0 17.0
vertex 8.267949192431123 30.0 12.5
vertex 8.068148347421863 30.0 12.982361909794959
endloop
endfacet
facet normal 0.0 -1.0 0.0
outer loop
vertex 5.000000000000001 30.0 17.0
vertex 8.068148347421863 30.0 12.982361909794959
vertex 7.999999999999999 30.0 13.5
endloop
endfacet
facet normal 0.0 -1.0 0.0
outer loop
vertex 5.000000000000001 30.0 17.0
vertex 7.999999999999999 30.0 13.5
vertex 8.068148347421863 30.0 14.01763809020504
endloop
endfacet
facet normal 0.0 -1.0 0.0
outer loop
vertex 5.000000000000001 30.0 17.0
vertex 8.068148347421863 30.0 14.01763809020504
vertex 8.267949192431121 30.0 14.499999999999998
endloop
endfacet
facet normal 0.0 -1.0 0.0
outer loop
vertex 5.000000000000001 30.0 17.0
vertex 8.267949192431121 30.0 14.499999999999998
vertex 8.585786437626904 30.0 14.914213562373094
endloop
endfacet
facet normal 0.0 -1.0 0.0
outer loop
vertex 5.000000000000001 30.0 17.0
vertex 8.585786437626904 30.0 14.914213562373094
vertex 8.999999999999998 30.0 15.232050807568877
endloop
endfacet
facet normal 0.0 -1.0 0.0
outer loop
vertex 5.000000000000001 30.0 17.0
vertex 8.999999999999998 30.0 15.232050807568877
vertex 9.482361909794957 30.0 15.431851652578136
endloop
endfacet
facet normal 0.0 -1.0 0.0
outer loop
vertex 5.000000000000001 30.0 17.0
vertex 9.482361909794957 30.0 15.431851652578136
vertex 9.999999999999998 30.0 15.5
endloop
endfacet
facet normal 0.0 -1.0 0.0
outer loop
vertex 5.000000000000001 30.0 17.0
vertex 9.999999999999998 30.0 15.5
vertex 14.999999999999998 30.0 17.0
endloop
endfacet
facet normal 1.0 -0.0 0.0
outer loop
vertex 14.999999999999998 35.0 10.0
vertex 14.999999999999998 30.0 17.0
vertex 14.999999999999998 30.0 10.0
endloop
endfacet
facet normal 1.0 -0.0 0.0
outer loop
vertex 14.999999999999998 30.0 17.0
vertex 14.999999999999998 35.0 10.0
vertex 14.999999999999998 35.0 17.0
endloop
endfacet
facet normal 0.0 0.0 1.0
outer loop
vertex 55.0 30.0 17.0
vertex 45.0 35.0 17.0
vertex 45.0 30.0 17.0
endloop
endfacet
facet normal 0.0 0.0 1.0
outer loop
vertex 45.0 35.0 17.0
vertex 55.0 30.0 17.0
vertex 55.0 35.0 17.0
endloop
endfacet
facet normal -1.0 -0.0 -0.0
outer loop
vertex 45.0 35.0 17.0
vertex 45.0 30.0 10.0
vertex 45.0 30.0 17.0
endloop
endfacet
facet normal -1.0 -0.0 -0.0
outer loop
vertex 45.0 30.0 10.0
vertex 45.0 35.0 17.0
vertex 45.0 35.0 10.0
endloop
endfacet
facet normal 0.0 -1.0 0.0
outer loop
vertex 55.0 30.0 10.0
vertex 50.51763809020504 30.0 11.568148347421864
vertex 45.0 30.0 10.0
endloop
endfacet
facet normal 0.0 -1.0 0.0
outer loop
vertex 50.51763809020504 30.0 11.568148347421864
vertex 55.0 30.0 10.0
vertex 51.0 30.0 11.767949192431125
endloop
endfacet
facet normal 0.0 -1.0 0.0
outer loop
vertex 51.0 30.0 11.767949192431125
vertex 55.0 30.0 10.0
vertex 51.4142135623731 30.0 12.085786437626906
endloop
endfacet
facet normal 0.0 -1.0 0.0
outer loop
vertex 51.4142135623731 30.0 12.085786437626906
vertex 55.0 30.0 10.0
vertex 51.732050807568875 30.0 12.500000000000002
endloop
endfacet
facet normal 0.0 -1.0 0.0
outer loop
vertex 51.732050807568875 30.0 12.500000000000002
vertex 55.0 30.0 10.0
vertex 55.0 30.0 17.0
endloop
endfacet
facet normal 0.0 -1.0 0.0
outer loop
vertex 45.0 30.0 10.0
vertex 50.51763809020504 30.0 11.568148347421864
vertex 50.0 30.0 11.500000000000002
endloop
endfacet
facet normal 0.0 -1.0 0.0
outer loop
vertex 51.732050807568875 30.0 12.500000000000002
vertex 55.0 30.0 17.0
vertex 51.93185165257813 30.0 12.98236190979496
endloop
endfacet
facet normal 0.0 -1.0 0.0
outer loop
vertex 51.93185165257813 30.0 12.98236190979496
vertex 55.0 30.0 17.0
vertex 51.99999999999999 30.0 13.5
endloop
endfacet
facet normal 0.0 -1.0 0.0
outer loop
vertex 51.99999999999999 30.0 13.5
vertex 55.0 30.0 17.0
vertex 51.93185165257813 30.0 14.017638090205043
endloop
endfacet
facet normal 0.0 -1.0 0.0
outer loop
vertex 51.93185165257813 30.0 14.017638090205043
vertex 55.0 30.0 17.0
vertex 51.732050807568875 30.0 14.500000000000002
endloop
endfacet
facet normal 0.0 -1.0 0.0
outer loop
vertex 51.732050807568875 30.0 14.500000000000002
vertex 55.0 30.0 17.0
vertex 51.4142135623731 30.0 14.914213562373096
endloop
endfacet
facet normal 0.0 -1.0 0.0
outer loop
vertex 51.4142135623731 30.0 14.914213562373096
vertex 55.0 30.0 17.0
vertex 51.0 30.0 15.232050807568877
endloop
endfacet
facet normal 0.0 -1.0 0.0
outer loop
vertex 51.0 30.0 15.232050807568877
vertex 55.0 30.0 17.0
vertex 50.51763809020504 30.0 15.431851652578136
endloop
endfacet
facet normal 0.0 -1.0 0.0
outer loop
vertex 50.51763809020504 30.0 15.431851652578136
vertex 55.0 30.0 17.0
vertex 50.0 30.0 15.5
endloop
endfacet
facet normal 0.0 -1.0 0.0
outer loop
vertex 45.0 30.0 10.0
vertex 48.26794919243112 30.0 12.5
vertex 45.0 30.0 17.0
endloop
endfacet
facet normal 0.0 -1.0 0.0
outer loop
vertex 48.26794919243112 30.0 12.5
vertex 45.0 30.0 10.0
vertex 48.58578643762691 30.0 12.085786437626904
endloop
endfacet
facet normal 0.0 -1.0 0.0
outer loop
vertex 48.58578643762691 30.0 12.085786437626904
vertex 45.0 30.0 10.0
vertex 49.0 30.0 11.767949192431123
endloop
endfacet
facet normal 0.0 -1.0 0.0
outer loop
vertex 49.0 30.0 11.767949192431123
vertex 45.0 30.0 10.0
vertex 49.48236190979496 30.0 11.568148347421864
endloop
endfacet
facet normal 0.0 -1.0 0.0
outer loop
vertex 49.48236190979496 30.0 11.568148347421864
vertex 45.0 30.0 10.0
vertex 50.0 30.0 11.500000000000002
endloop
endfacet
facet normal 0.0 -1.0 0.0
outer loop
vertex 45.0 30.0 17.0
vertex 48.26794919243112 30.0 12.5
vertex 48.06814834742187 30.0 12.982361909794959
endloop
endfacet
facet normal 0.0 -1.0 0.0
outer loop
vertex 45.0 30.0 17.0
vertex 48.06814834742187 30.0 12.982361909794959
vertex 48.0 30.0 13.5
endloop
endfacet
facet normal 0.0 -1.0 0.0
outer loop
vertex 45.0 30.0 17.0
vertex 48.0 30.0 13.5
vertex 48.06814834742186 30.0 14.01763809020504
endloop
endfacet
facet normal 0.0 -1.0 0.0
outer loop
vertex 45.0 30.0 17.0
vertex 48.06814834742186 30.0 14.01763809020504
vertex 48.26794919243112 30.0 14.499999999999998
endloop
endfacet
facet normal 0.0 -1.0 0.0
outer loop
vertex 45.0 30.0 17.0
vertex 48.26794919243112 30.0 14.499999999999998
vertex 48.58578643762691 30.0 14.914213562373094
endloop
endfacet
facet normal 0.0 -1.0 0.0
outer loop
vertex 45.0 30.0 17.0
vertex 48.58578643762691 30.0 14.914213562373094
vertex 49.0 30.0 15.232050807568877
endloop
endfacet
facet normal 0.0 -1.0 0.0
outer loop
vertex 45.0 30.0 17.0
vertex 49.0 30.0 15.232050807568877
vertex 49.48236190979495 30.0 15.431851652578136
endloop
endfacet
facet normal 0.0 -1.0 0.0
outer loop
vertex 45.0 30.0 17.0
vertex 49.48236190979495 30.0 15.431851652578136
vertex 50.0 30.0 15.5
endloop
endfacet
facet normal 0.0 -1.0 0.0
outer loop
vertex 45.0 30.0 17.0
vertex 50.0 30.0 15.5
vertex 55.0 30.0 17.0
endloop
endfacet
facet normal 1.0 -0.0 0.0
outer loop
vertex 55.0 35.0 10.0
vertex 55.0 30.0 17.0
vertex 55.0 30.0 10.0
endloop
endfacet
facet normal 1.0 -0.0 0.0
outer loop
vertex 55.0 30.0 17.0
vertex 55.0 35.0 10.0
vertex 55.0 35.0 17.0
endloop
endfacet
facet normal 0.0 -1.0 0.0
outer loop
vertex 10.51763809020504 31.025132000000013 11.568148347421864
vertex 9.482361909794959 31.025132000000013 11.568148347421864
vertex 9.999999999999998 31.025132000000013 11.500000000000002
endloop
endfacet
facet normal 0.0 -1.0 0.0
outer loop
vertex 9.482361909794959 31.025132000000013 11.568148347421864
vertex 10.51763809020504 31.025132000000013 11.568148347421864
vertex 11.0 31.025132000000013 11.767949192431125
endloop
endfacet
facet normal 0.0 -1.0 0.0
outer loop
vertex 9.482361909794959 31.025132000000013 11.568148347421864
vertex 11.0 31.025132000000013 11.767949192431125
vertex 8.999999999999998 31.025132000000013 11.767949192431123
endloop
endfacet
facet normal 0.0 -1.0 0.0
outer loop
vertex 8.999999999999998 31.025132000000013 11.767949192431123
vertex 11.0 31.025132000000013 11.767949192431125
vertex 8.585786437626906 31.025132000000013 12.085786437626904
endloop
endfacet
facet normal 0.0 -1.0 0.0
outer loop
vertex 8.585786437626906 31.025132000000013 12.085786437626904
vertex 11.0 31.025132000000013 11.767949192431125
vertex 11.414213562373092 31.025132000000013 12.085786437626906
endloop
endfacet
facet normal 0.0 -1.0 0.0
outer loop
vertex 8.585786437626906 31.025132000000013 12.085786437626904
vertex 11.414213562373092 31.025132000000013 12.085786437626906
vertex 8.267949192431123 31.025132000000013 12.5
endloop
endfacet
facet normal 0.0 -1.0 0.0
outer loop
vertex 8.267949192431123 31.025132000000013 12.5
vertex 11.414213562373092 31.025132000000013 12.085786437626906
vertex 11.732050807568875 31.025132000000013 12.500000000000002
endloop
endfacet
facet normal 0.0 -1.0 0.0
outer loop
vertex 8.267949192431123 31.025132000000013 12.5
vertex 11.732050807568875 31.025132000000013 12.500000000000002
vertex 8.068148347421863 31.025132000000013 12.982361909794959
endloop
endfacet
facet normal 0.0 -1.0 0.0
outer loop
vertex 8.068148347421863 31.025132000000013 12.982361909794959
vertex 11.732050807568875 31.025132000000013 12.500000000000002
vertex 11.931851652578134 31.025132000000013 12.98236190979496
endloop
endfacet
facet normal 0.0 -1.0 0.0
outer loop
vertex 8.068148347421863 31.025132000000013 12.982361909794959
vertex 11.931851652578134 31.025132000000013 12.98236190979496
vertex 7.999999999999999 31.025132000000013 13.5
endloop
endfacet
facet normal 0.0 -1.0 0.0
outer loop
vertex 7.999999999999999 31.025132000000013 13.5
vertex 11.931851652578134 31.025132000000013 12.98236190979496
vertex 11.999999999999998 31.025132000000013 13.5
endloop
endfacet
facet normal 0.0 -1.0 0.0
outer loop
vertex 7.999999999999999 31.025132000000013 13.5
vertex 11.999999999999998 31.025132000000013 13.5
vertex 11.931851652578134 31.025132000000013 14.017638090205043
endloop
endfacet
facet normal 0.0 -1.0 0.0
outer loop
vertex 7.999999999999999 31.025132000000013 13.5
vertex 11.931851652578134 31.025132000000013 14.017638090205043
vertex 8.068148347421863 31.025132000000013 14.01763809020504
endloop
endfacet
facet normal 0.0 -1.0 0.0
outer loop
vertex 8.068148347421863 31.025132000000013 14.01763809020504
vertex 11.931851652578134 31.025132000000013 14.017638090205043
vertex 8.267949192431121 31.025132000000013 14.499999999999998
endloop
endfacet
facet normal 0.0 -1.0 0.0
outer loop
vertex 8.267949192431121 31.025132000000013 14.499999999999998
vertex 11.931851652578134 31.025132000000013 14.017638090205043
vertex 11.732050807568875 31.025132000000013 14.500000000000002
endloop
endfacet
facet normal 0.0 -1.0 0.0
outer loop
vertex 8.267949192431121 31.025132000000013 14.499999999999998
vertex 11.732050807568875 31.025132000000013 14.500000000000002
vertex 8.585786437626904 31.025132000000013 14.914213562373094
endloop
endfacet
facet normal 0.0 -1.0 0.0
outer loop
vertex 8.585786437626904 31.025132000000013 14.914213562373094
vertex 11.732050807568875 31.025132000000013 14.500000000000002
vertex 11.414213562373092 31.025132000000013 14.914213562373096
endloop
endfacet
facet normal 0.0 -1.0 0.0
outer loop
vertex 8.585786437626904 31.025132000000013 14.914213562373094
vertex 11.414213562373092 31.025132000000013 14.914213562373096
vertex 8.999999999999998 31.025132000000013 15.232050807568877
endloop
endfacet
facet normal 0.0 -1.0 0.0
outer loop
vertex 8.999999999999998 31.025132000000013 15.232050807568877
vertex 11.414213562373092 31.025132000000013 14.914213562373096
vertex 10.999999999999998 31.025132000000013 15.232050807568877
endloop
endfacet
facet normal 0.0 -1.0 0.0
outer loop
vertex 8.999999999999998 31.025132000000013 15.232050807568877
vertex 10.999999999999998 31.025132000000013 15.232050807568877
vertex 10.51763809020504 31.025132000000013 15.431851652578136
endloop
endfacet
facet normal 0.0 -1.0 0.0
outer loop
vertex 8.999999999999998 31.025132000000013 15.232050807568877
vertex 10.51763809020504 31.025132000000013 15.431851652578136
vertex 9.482361909794957 31.025132000000013 15.431851652578136
endloop
endfacet
facet normal 0.0 -1.0 0.0
outer loop
vertex 9.482361909794957 31.025132000000013 15.431851652578136
vertex 10.51763809020504 31.025132000000013 15.431851652578136
vertex 9.999999999999998 31.025132000000013 15.5
endloop
endfacet
facet normal -0.4999999999999992 0.0 -0.8660254037844392
outer loop
vertex 10.999999999999998 31.025132000000013 15.232050807568877
vertex 10.51763809020504 30.0 15.431851652578136
vertex 10.51763809020504 31.025132000000013 15.431851652578136
endloop
endfacet
facet normal -0.25881904510252174 0.0 -0.9659258262890681
outer loop
vertex 10.51763809020504 30.0 15.431851652578136
vertex 10.999999999999998 31.025132000000013 15.232050807568877
vertex 10.999999999999998 30.0 15.232050807568877
endloop
endfacet
facet normal -0.25881904510252174 0.0 -0.9659258262890681
outer loop
vertex 10.51763809020504 31.025132000000013 15.431851652578136
vertex 9.999999999999998 30.0 15.5
vertex 9.999999999999998 31.025132000000013 15.5
endloop
endfacet
facet normal -1.7822219791293813e-16 0.0 -1.0
outer loop
vertex 9.999999999999998 30.0 15.5
vertex 10.51763809020504 31.025132000000013 15.431851652578136
vertex 10.51763809020504 30.0 15.431851652578136
endloop
endfacet
facet normal -1.7822219791293813e-16 0.0 -1.0
outer loop
vertex 9.999999999999998 31.025132000000013 15.5
vertex 9.482361909794957 30.0 15.431851652578136
vertex 9.482361909794957 31.025132000000013 15.431851652578136
endloop
endfacet
facet normal 0.25881904510252146 0.0 -0.9659258262890681
outer loop
vertex 9.482361909794957 30.0 15.431851652578136
vertex 9.999999999999998 31.025132000000013 15.5
vertex 9.999999999999998 30.0 15.5
endloop
endfacet
facet normal 0.25881904510252146 0.0 -0.9659258262890681
outer loop
vertex 9.482361909794957 31.025132000000013 15.431851652578136
vertex 8.999999999999998 30.0 15.232050807568877
vertex 8.999999999999998 31.025132000000013 15.232050807568877
endloop
endfacet
facet normal 0.5000000000000018 0.0 -0.8660254037844376
outer loop
vertex 8.999999999999998 30.0 15.232050807568877
vertex 9.482361909794957 31.025132000000013 15.431851652578136
vertex 9.482361909794957 30.0 15.431851652578136
endloop
endfacet
facet normal 0.5000000000000018 0.0 -0.8660254037844376
outer loop
vertex 8.999999999999998 31.025132000000013 15.232050807568877
vertex 8.585786437626904 30.0 14.914213562373094
vertex 8.585786437626904 31.025132000000013 14.914213562373094
endloop
endfacet
facet normal 0.7071067811865481 0.0 -0.707106781186547
outer loop
vertex 8.585786437626904 30.0 14.914213562373094
vertex 8.999999999999998 31.025132000000013 15.232050807568877
vertex 8.999999999999998 30.0 15.232050807568877
endloop
endfacet
facet normal 0.8660254037844387 0.0 -0.5
outer loop
vertex 8.267949192431121 31.025132000000013 14.499999999999998
vertex 8.585786437626904 30.0 14.914213562373094
vertex 8.267949192431121 30.0 14.499999999999998
endloop
endfacet
facet normal 0.7071067811865481 0.0 -0.707106781186547
outer loop
vertex 8.585786437626904 30.0 14.914213562373094
vertex 8.267949192431121 31.025132000000013 14.499999999999998
vertex 8.585786437626904 31.025132000000013 14.914213562373094
endloop
endfacet
facet normal 0.9659258262890684 0.0 -0.25881904510252063
outer loop
vertex 8.068148347421863 31.025132000000013 14.01763809020504
vertex 8.267949192431121 30.0 14.499999999999998
vertex 8.068148347421863 30.0 14.01763809020504
endloop
endfacet
facet normal 0.8660254037844387 0.0 -0.5
outer loop
vertex 8.267949192431121 30.0 14.499999999999998
vertex 8.068148347421863 31.025132000000013 14.01763809020504
vertex 8.267949192431121 31.025132000000013 14.499999999999998
endloop
endfacet
facet normal 1.0 0.0 -3.6535550572152315e-16
outer loop
vertex 7.999999999999999 31.025132000000013 13.5
vertex 8.068148347421863 30.0 14.01763809020504
vertex 7.999999999999999 30.0 13.5
endloop
endfacet
facet normal 0.9659258262890684 0.0 -0.25881904510252063
outer loop
vertex 8.068148347421863 30.0 14.01763809020504
vertex 7.999999999999999 31.025132000000013 13.5
vertex 8.068148347421863 31.025132000000013 14.01763809020504
endloop
endfacet
facet normal 0.9659258262890681 0.0 0.25881904510252146
outer loop
vertex 8.068148347421863 31.025132000000013 12.982361909794959
vertex 7.999999999999999 30.0 13.5
vertex 8.068148347421863 30.0 12.982361909794959
endloop
endfacet
facet normal 1.0 0.0 -3.6535550572152315e-16
outer loop
vertex 7.999999999999999 30.0 13.5
vertex 8.068148347421863 31.025132000000013 12.982361909794959
vertex 7.999999999999999 31.025132000000013 13.5
endloop
endfacet
facet normal 0.866025403784438 0.0 0.5000000000000011
outer loop
vertex 8.267949192431123 31.025132000000013 12.5
vertex 8.068148347421863 30.0 12.982361909794959
vertex 8.267949192431123 30.0 12.5
endloop
endfacet
facet normal 0.9659258262890681 0.0 0.25881904510252146
outer loop
vertex 8.068148347421863 30.0 12.982361909794959
vertex 8.267949192431123 31.025132000000013 12.5
vertex 8.068148347421863 31.025132000000013 12.982361909794959
endloop
endfacet
facet normal 0.7071067811865474 0.0 0.7071067811865477
outer loop
vertex 8.585786437626906 31.025132000000013 12.085786437626904
vertex 8.267949192431123 30.0 12.5
vertex 8.585786437626906 30.0 12.085786437626904
endloop
endfacet
facet normal 0.866025403784438 0.0 0.5000000000000011
outer loop
vertex 8.267949192431123 30.0 12.5
vertex 8.585786437626906 31.025132000000013 12.085786437626904
vertex 8.267949192431123 31.025132000000013 12.5
endloop
endfacet
facet normal 0.4999999999999994 0.0 0.866025403784439
outer loop
vertex 8.999999999999998 30.0 11.767949192431123
vertex 8.585786437626906 31.025132000000013 12.085786437626904
vertex 8.585786437626906 30.0 12.085786437626904
endloop
endfacet
facet normal 0.7071067811865474 0.0 0.7071067811865477
outer loop
vertex 8.585786437626906 31.025132000000013 12.085786437626904
vertex 8.999999999999998 30.0 11.767949192431123
vertex 8.999999999999998 31.025132000000013 11.767949192431123
endloop
endfacet
facet normal 0.25881904510252013 0.0 0.9659258262890685
outer loop
vertex 9.482361909794959 30.0 11.568148347421864
vertex 8.999999999999998 31.025132000000013 11.767949192431123
vertex 8.999999999999998 30.0 11.767949192431123
endloop
endfacet
facet normal 0.4999999999999994 0.0 0.866025403784439
outer loop
vertex 8.999999999999998 31.025132000000013 11.767949192431123
vertex 9.482361909794959 30.0 11.568148347421864
vertex 9.482361909794959 31.025132000000013 11.568148347421864
endloop
endfacet
facet normal 1.8713330780858502e-16 0.0 1.0
outer loop
vertex 9.999999999999998 30.0 11.500000000000002
vertex 9.482361909794959 31.025132000000013 11.568148347421864
vertex 9.482361909794959 30.0 11.568148347421864
endloop
endfacet
facet normal 0.25881904510252013 0.0 0.9659258262890685
outer loop
vertex 9.482361909794959 31.025132000000013 11.568148347421864
vertex 9.999999999999998 30.0 11.500000000000002
vertex 9.999999999999998 31.025132000000013 11.500000000000002
endloop
endfacet
facet normal -0.25881904510252113 0.0 0.9659258262890682
outer loop
vertex 10.51763809020504 30.0 11.568148347421864
vertex 9.999999999999998 31.025132000000013 11.500000000000002
vertex 9.999999999999998 30.0 11.500000000000002
endloop
endfacet
facet normal 1.8713330780858502e-16 0.0 1.0
outer loop
vertex 9.999999999999998 31.025132000000013 11.500000000000002
vertex 10.51763809020504 30.0 11.568148347421864
vertex 10.51763809020504 31.025132000000013 11.568148347421864
endloop
endfacet
facet normal -0.5000000000000003 0.0 0.8660254037844384
outer loop
vertex 11.0 30.0 11.767949192431125
vertex 10.51763809020504 31.025132000000013 11.568148347421864
vertex 10.51763809020504 30.0 11.568148347421864
endloop
endfacet
facet normal -0.25881904510252113 0.0 0.9659258262890682
outer loop
vertex 10.51763809020504 31.025132000000013 11.568148347421864
vertex 11.0 30.0 11.767949192431125
vertex 11.0 31.025132000000013 11.767949192431125
endloop
endfacet
facet normal -0.7071067811865474 0.0 0.7071067811865477
outer loop
vertex 11.414213562373092 30.0 12.085786437626906
vertex 11.0 31.025132000000013 11.767949192431125
vertex 11.0 30.0 11.767949192431125
endloop
endfacet
facet normal -0.5000000000000003 0.0 0.8660254037844384
outer loop
vertex 11.0 31.025132000000013 11.767949192431125
vertex 11.414213562373092 30.0 12.085786437626906
vertex 11.414213562373092 31.025132000000013 12.085786437626906
endloop
endfacet
facet normal -0.8660254037844389 0.0 0.49999999999999956
outer loop
vertex 11.732050807568875 31.025132000000013 12.500000000000002
vertex 11.414213562373092 30.0 12.085786437626906
vertex 11.732050807568875 30.0 12.500000000000002
endloop
endfacet
facet normal -0.7071067811865474 0.0 0.7071067811865477
outer loop
vertex 11.414213562373092 30.0 12.085786437626906
vertex 11.732050807568875 31.025132000000013 12.500000000000002
vertex 11.414213562373092 31.025132000000013 12.085786437626906
endloop
endfacet
facet normal -0.9659258262890685 0.0 0.25881904510252013
outer loop
vertex 11.931851652578134 31.025132000000013 12.98236190979496
vertex 11.732050807568875 30.0 12.500000000000002
vertex 11.931851652578134 30.0 12.98236190979496
endloop
endfacet
facet normal -0.8660254037844389 0.0 0.49999999999999956
outer loop
vertex 11.732050807568875 30.0 12.500000000000002
vertex 11.931851652578134 31.025132000000013 12.98236190979496
vertex 11.732050807568875 31.025132000000013 12.500000000000002
endloop
endfacet
facet normal -1.0 0.0 3.6535550572152315e-16
outer loop
vertex 11.999999999999998 31.025132000000013 13.5
vertex 11.931851652578134 30.0 12.98236190979496
vertex 11.999999999999998 30.0 13.5
endloop
endfacet
facet normal -0.9659258262890685 0.0 0.25881904510252013
outer loop
vertex 11.931851652578134 30.0 12.98236190979496
vertex 11.999999999999998 31.025132000000013 13.5
vertex 11.931851652578134 31.025132000000013 12.98236190979496
endloop
endfacet
facet normal -0.9659258262890684 0.0 -0.25881904510252024
outer loop
vertex 11.931851652578134 31.025132000000013 14.017638090205043
vertex 11.999999999999998 30.0 13.5
vertex 11.931851652578134 30.0 14.017638090205043
endloop
endfacet
facet normal -1.0 0.0 3.6535550572152315e-16
outer loop
vertex 11.999999999999998 30.0 13.5
vertex 11.931851652578134 31.025132000000013 14.017638090205043
vertex 11.999999999999998 31.025132000000013 13.5
endloop
endfacet
facet normal -0.8660254037844387 0.0 -0.5
outer loop
vertex 11.732050807568875 31.025132000000013 14.500000000000002
vertex 11.931851652578134 30.0 14.017638090205043
vertex 11.732050807568875 30.0 14.500000000000002
endloop
endfacet
facet normal -0.9659258262890684 0.0 -0.25881904510252024
outer loop
vertex 11.931851652578134 30.0 14.017638090205043
vertex 11.732050807568875 31.025132000000013 14.500000000000002
vertex 11.931851652578134 31.025132000000013 14.017638090205043
endloop
endfacet
facet normal -0.707106781186546 0.0 -0.707106781186549
outer loop
vertex 11.414213562373092 31.025132000000013 14.914213562373096
vertex 11.732050807568875 30.0 14.500000000000002
vertex 11.414213562373092 30.0 14.914213562373096
endloop
endfacet
facet normal -0.8660254037844387 0.0 -0.5
outer loop
vertex 11.732050807568875 30.0 14.500000000000002
vertex 11.414213562373092 31.025132000000013 14.914213562373096
vertex 11.732050807568875 31.025132000000013 14.500000000000002
endloop
endfacet
facet normal -0.707106781186546 0.0 -0.707106781186549
outer loop
vertex 11.414213562373092 31.025132000000013 14.914213562373096
vertex 10.999999999999998 30.0 15.232050807568877
vertex 10.999999999999998 31.025132000000013 15.232050807568877
endloop
endfacet
facet normal -0.4999999999999992 0.0 -0.8660254037844392
outer loop
vertex 10.999999999999998 30.0 15.232050807568877
vertex 11.414213562373092 31.025132000000013 14.914213562373096
vertex 11.414213562373092 30.0 14.914213562373096
endloop
endfacet
facet normal 0.0 -1.0 0.0
outer loop
vertex 50.51763809020504 31.09002599999999 11.568148347421864
vertex 49.48236190979496 31.09002599999999 11.568148347421864
vertex 50.0 31.09002599999999 11.500000000000002
endloop
endfacet
facet normal 0.0 -1.0 0.0
outer loop
vertex 49.48236190979496 31.09002599999999 11.568148347421864
vertex 50.51763809020504 31.09002599999999 11.568148347421864
vertex 51.0 31.09002599999999 11.767949192431125
endloop
endfacet
facet normal 0.0 -1.0 0.0
outer loop
vertex 49.48236190979496 31.09002599999999 11.568148347421864
vertex 51.0 31.09002599999999 11.767949192431125
vertex 49.0 31.09002599999999 11.767949192431123
endloop
endfacet
facet normal 0.0 -1.0 0.0
outer loop
vertex 49.0 31.09002599999999 11.767949192431123
vertex 51.0 31.09002599999999 11.767949192431125
vertex 48.58578643762691 31.09002599999999 12.085786437626904
endloop
endfacet
facet normal 0.0 -1.0 0.0
outer loop
vertex 48.58578643762691 31.09002599999999 12.085786437626904
vertex 51.0 31.09002599999999 11.767949192431125
vertex 51.4142135623731 31.09002599999999 12.085786437626906
endloop
endfacet
facet normal 0.0 -1.0 0.0
outer loop
vertex 48.58578643762691 31.09002599999999 12.085786437626904
vertex 51.4142135623731 31.09002599999999 12.085786437626906
vertex 48.26794919243112 31.09002599999999 12.5
endloop
endfacet
facet normal 0.0 -1.0 0.0
outer loop
vertex 48.26794919243112 31.09002599999999 12.5
vertex 51.4142135623731 31.09002599999999 12.085786437626906
vertex 51.732050807568875 31.09002599999999 12.500000000000002
endloop
endfacet
facet normal 0.0 -1.0 0.0
outer loop
vertex 48.26794919243112 31.09002599999999 12.5
vertex 51.732050807568875 31.09002599999999 12.500000000000002
vertex 48.06814834742187 31.09002599999999 12.982361909794959
endloop
endfacet
facet normal 0.0 -1.0 0.0
outer loop
vertex 48.06814834742187 31.09002599999999 12.982361909794959
vertex 51.732050807568875 31.09002599999999 12.500000000000002
vertex 51.93185165257813 31.09002599999999 12.98236190979496
endloop
endfacet
facet normal 0.0 -1.0 0.0
outer loop
vertex 48.06814834742187 31.09002599999999 12.982361909794959
vertex 51.93185165257813 31.09002599999999 12.98236190979496
vertex 48.0 31.09002599999999 13.5
endloop
endfacet
facet normal 0.0 -1.0 0.0
outer loop
vertex 48.0 31.09002599999999 13.5
vertex 51.93185165257813 31.09002599999999 12.98236190979496
vertex 51.99999999999999 31.09002599999999 13.5
endloop
endfacet
facet normal 0.0 -1.0 0.0
outer loop
vertex 48.0 31.09002599999999 13.5
vertex 51.99999999999999 31.09002599999999 13.5
vertex 51.93185165257813 31.09002599999999 14.017638090205043
endloop
endfacet
facet normal 0.0 -1.0 0.0
outer loop
vertex 48.0 31.09002599999999 13.5
vertex 51.93185165257813 31.09002599999999 14.017638090205043
vertex 48.06814834742186 31.09002599999999 14.01763809020504
endloop
endfacet
facet normal 0.0 -1.0 0.0
outer loop
vertex 48.06814834742186 31.09002599999999 14.01763809020504
vertex 51.93185165257813 31.09002599999999 14.017638090205043
vertex 48.26794919243112 31.09002599999999 14.499999999999998
endloop
endfacet
facet normal 0.0 -1.0 0.0
outer loop
vertex 48.26794919243112 31.09002599999999 14.499999999999998
vertex 51.93185165257813 31.09002599999999 14.017638090205043
vertex 51.732050807568875 31.09002599999999 14.500000000000002
endloop
endfacet
facet normal 0.0 -1.0 0.0
outer loop
vertex 48.26794919243112 31.09002599999999 14.499999999999998
vertex 51.732050807568875 31.09002599999999 14.500000000000002
vertex 48.58578643762691 31.09002599999999 14.914213562373094
endloop
endfacet
facet normal 0.0 -1.0 0.0
outer loop
vertex 48.58578643762691 31.09002599999999 14.914213562373094
vertex 51.732050807568875 31.09002599999999 14.500000000000002
vertex 51.4142135623731 31.09002599999999 14.914213562373096
endloop
endfacet
facet normal 0.0 -1.0 0.0
outer loop
vertex 48.58578643762691 31.09002599999999 14.914213562373094
vertex 51.4142135623731 31.09002599999999 14.914213562373096
vertex 49.0 31.09002599999999 15.232050807568877
endloop
endfacet
facet normal 0.0 -1.0 0.0
outer loop
vertex 49.0 31.09002599999999 15.232050807568877
vertex 51.4142135623731 31.09002599999999 14.914213562373096
vertex 51.0 31.09002599999999 15.232050807568877
endloop
endfacet
facet normal 0.0 -1.0 0.0
outer loop
vertex 49.0 31.09002599999999 15.232050807568877
vertex 51.0 31.09002599999999 15.232050807568877
vertex 50.51763809020504 31.09002599999999 15.431851652578136
endloop
endfacet
facet normal 0.0 -1.0 0.0
outer loop
vertex 49.0 31.09002599999999 15.232050807568877
vertex 50.51763809020504 31.09002599999999 15.431851652578136
vertex 49.48236190979495 31.09002599999999 15.431851652578136
endloop
endfacet
facet normal 0.0 -1.0 0.0
outer loop
vertex 49.48236190979495 31.09002599999999 15.431851652578136
vertex 50.51763809020504 31.09002599999999 15.431851652578136
vertex 50.0 31.09002599999999 15.5
endloop
endfacet
facet normal 0.25881904510252063 0.0 0.9659258262890684
outer loop
vertex 49.48236190979496 30.0 11.568148347421864
vertex 49.0 31.09002599999999 11.767949192431123
vertex 49.0 30.0 11.767949192431123
endloop
endfacet
facet normal 0.49999999999999917 0.0 0.8660254037844393
outer loop
vertex 49.0 31.09002599999999 11.767949192431123
vertex 49.48236190979496 30.0 11.568148347421864
vertex 49.48236190979496 31.09002599999999 11.568148347421864
endloop
endfacet
facet normal 0.0 0.0 1.0
outer loop
vertex 50.0 30.0 11.500000000000002
vertex 49.48236190979496 31.09002599999999 11.568148347421864
vertex 49.48236190979496 30.0 11.568148347421864
endloop
endfacet
facet normal 0.25881904510252063 0.0 0.9659258262890684
outer loop
vertex 49.48236190979496 31.09002599999999 11.568148347421864
vertex 50.0 30.0 11.500000000000002
vertex 50.0 31.09002599999999 11.500000000000002
endloop
endfacet
facet normal -0.2588190451025219 0.0 0.9659258262890681
outer loop
vertex 50.51763809020504 30.0 11.568148347421864
vertex 50.0 31.09002599999999 11.500000000000002
vertex 50.0 30.0 11.500000000000002
endloop
endfacet
facet normal 0.0 0.0 1.0
outer loop
vertex 50.0 31.09002599999999 11.500000000000002
vertex 50.51763809020504 30.0 11.568148347421864
vertex 50.51763809020504 31.09002599999999 11.568148347421864
endloop
endfacet
facet normal -0.4999999999999972 0.0 0.8660254037844403
outer loop
vertex 51.0 30.0 11.767949192431125
vertex 50.51763809020504 31.09002599999999 11.568148347421864
vertex 50.51763809020504 30.0 11.568148347421864
endloop
endfacet
facet normal -0.2588190451025219 0.0 0.9659258262890681
outer loop
vertex 50.51763809020504 31.09002599999999 11.568148347421864
vertex 51.0 30.0 11.767949192431125
vertex 51.0 31.09002599999999 11.767949192431125
endloop
endfacet
facet normal -0.7071067811865459 0.0 0.7071067811865492
outer loop
vertex 51.4142135623731 30.0 12.085786437626906
vertex 51.0 31.09002599999999 11.767949192431125
vertex 51.0 30.0 11.767949192431125
endloop
endfacet
facet normal -0.4999999999999972 0.0 0.8660254037844403
outer loop
vertex 51.0 31.09002599999999 11.767949192431125
vertex 51.4142135623731 30.0 12.085786437626906
vertex 51.4142135623731 31.09002599999999 12.085786437626906
endloop
endfacet
facet normal -0.8660254037844419 0.0 0.4999999999999945
outer loop
vertex 51.732050807568875 31.09002599999999 12.500000000000002
vertex 51.4142135623731 30.0 12.085786437626906
vertex 51.732050807568875 30.0 12.500000000000002
endloop
endfacet
facet normal -0.7071067811865459 0.0 0.7071067811865492
outer loop
vertex 51.4142135623731 30.0 12.085786437626906
vertex 51.732050807568875 31.09002599999999 12.500000000000002
vertex 51.4142135623731 31.09002599999999 12.085786437626906
endloop
endfacet
facet normal -0.9659258262890694 0.0 0.2588190451025165
outer loop
vertex 51.93185165257813 31.09002599999999 12.98236190979496
vertex 51.732050807568875 30.0 12.500000000000002
vertex 51.93185165257813 30.0 12.98236190979496
endloop
endfacet
facet normal -0.8660254037844419 0.0 0.4999999999999945
outer loop
vertex 51.732050807568875 30.0 12.500000000000002
vertex 51.93185165257813 31.09002599999999 12.98236190979496
vertex 51.732050807568875 31.09002599999999 12.500000000000002
endloop
endfacet
facet normal -1.0 0.0 3.6535550572152315e-16
outer loop
vertex 51.99999999999999 31.09002599999999 13.5
vertex 51.93185165257813 30.0 12.98236190979496
vertex 51.99999999999999 30.0 13.5
endloop
endfacet
facet normal -0.9659258262890694 0.0 0.2588190451025165
outer loop
vertex 51.93185165257813 30.0 12.98236190979496
vertex 51.99999999999999 31.09002599999999 13.5
vertex 51.93185165257813 31.09002599999999 12.98236190979496
endloop
endfacet
facet normal -0.9659258262890694 0.0 -0.25881904510251663
outer loop
vertex 51.93185165257813 31.09002599999999 14.017638090205043
vertex 51.99999999999999 30.0 13.5
vertex 51.93185165257813 30.0 14.017638090205043
endloop
endfacet
facet normal -1.0 0.0 3.6535550572152315e-16
outer loop
vertex 51.99999999999999 30.0 13.5
vertex 51.93185165257813 31.09002599999999 14.017638090205043
vertex 51.99999999999999 31.09002599999999 13.5
endloop
endfacet
facet normal -0.8660254037844416 0.0 -0.49999999999999484
outer loop
vertex 51.732050807568875 31.09002599999999 14.500000000000002
vertex 51.93185165257813 30.0 14.017638090205043
vertex 51.732050807568875 30.0 14.500000000000002
endloop
endfacet
facet normal -0.9659258262890694 0.0 -0.25881904510251663
outer loop
vertex 51.93185165257813 30.0 14.017638090205043
vertex 51.732050807568875 31.09002599999999 14.500000000000002
vertex 51.93185165257813 31.09002599999999 14.017638090205043
endloop
endfacet
facet normal -0.7071067811865452 0.0 -0.7071067811865499
outer loop
vertex 51.4142135623731 31.09002599999999 14.914213562373096
vertex 51.732050807568875 30.0 14.500000000000002
vertex 51.4142135623731 30.0 14.914213562373096
endloop
endfacet
facet normal -0.8660254037844416 0.0 -0.49999999999999484
outer loop
vertex 51.732050807568875 30.0 14.500000000000002
vertex 51.4142135623731 31.09002599999999 14.914213562373096
vertex 51.732050807568875 31.09002599999999 14.500000000000002
endloop
endfacet
facet normal -0.7071067811865452 0.0 -0.7071067811865499
outer loop
vertex 51.4142135623731 31.09002599999999 14.914213562373096
vertex 51.0 30.0 15.232050807568877
vertex 51.0 31.09002599999999 15.232050807568877
endloop
endfacet
facet normal -0.4999999999999964 0.0 -0.8660254037844408
outer loop
vertex 51.0 30.0 15.232050807568877
vertex 51.4142135623731 31.09002599999999 14.914213562373096
vertex 51.4142135623731 30.0 14.914213562373096
endloop
endfacet
facet normal -0.4999999999999964 0.0 -0.8660254037844408
outer loop
vertex 51.0 31.09002599999999 15.232050807568877
vertex 50.51763809020504 30.0 15.431851652578136
vertex 50.51763809020504 31.09002599999999 15.431851652578136
endloop
endfacet
facet normal -0.2588190451025219 0.0 -0.9659258262890681
outer loop
vertex 50.51763809020504 30.0 15.431851652578136
vertex 51.0 31.09002599999999 15.232050807568877
vertex 51.0 30.0 15.232050807568877
endloop
endfacet
facet normal -0.2588190451025219 0.0 -0.9659258262890681
outer loop
vertex 50.51763809020504 31.09002599999999 15.431851652578136
vertex 50.0 30.0 15.5
vertex 50.0 31.09002599999999 15.5
endloop
endfacet
facet normal -7.039776817561054e-16 0.0 -1.0
outer loop
vertex 50.0 30.0 15.5
vertex 50.51763809020504 31.09002599999999 15.431851652578136
vertex 50.51763809020504 30.0 15.431851652578136
endloop
endfacet
facet normal -7.039776817561054e-16 0.0 -1.0
outer loop
vertex 50.0 31.09002599999999 15.5
vertex 49.48236190979495 30.0 15.431851652578136
vertex 49.48236190979495 31.09002599999999 15.431851652578136
endloop
endfacet
facet normal 0.2588190451025232 0.0 -0.9659258262890676
outer loop
vertex 49.48236190979495 30.0 15.431851652578136
vertex 50.0 31.09002599999999 15.5
vertex 50.0 30.0 15.5
endloop
endfacet
facet normal 0.2588190451025232 0.0 -0.9659258262890676
outer loop
vertex 49.48236190979495 31.09002599999999 15.431851652578136
vertex 49.0 30.0 15.232050807568877
vertex 49.0 31.09002599999999 15.232050807568877
endloop
endfacet
facet normal 0.5000000000000029 0.0 -0.8660254037844369
outer loop
vertex 49.0 30.0 15.232050807568877
vertex 49.48236190979495 31.09002599999999 15.431851652578136
vertex 49.48236190979495 30.0 15.431851652578136
endloop
endfacet
facet normal 0.5000000000000029 0.0 -0.8660254037844369
outer loop
vertex 49.0 31.09002599999999 15.232050807568877
vertex 48.58578643762691 30.0 14.914213562373094
vertex 48.58578643762691 31.09002599999999 14.914213562373094
endloop
endfacet
facet normal 0.707106781186546 0.0 -0.7071067811865489
outer loop
vertex 48.58578643762691 30.0 14.914213562373094
vertex 49.0 31.09002599999999 15.232050807568877
vertex 49.0 30.0 15.232050807568877
endloop
endfacet
facet normal 0.8660254037844369 0.0 -0.500000000000003
outer loop
vertex 48.26794919243112 31.09002599999999 14.499999999999998
vertex 48.58578643762691 30.0 14.914213562373094
vertex 48.26794919243112 30.0 14.499999999999998
endloop
endfacet
facet normal 0.707106781186546 0.0 -0.7071067811865489
outer loop
vertex 48.58578643762691 30.0 14.914213562373094
vertex 48.26794919243112 31.09002599999999 14.499999999999998
vertex 48.58578643762691 31.09002599999999 14.914213562373094
endloop
endfacet
facet normal 0.9659258262890694 0.0 -0.2588190451025167
outer loop
vertex 48.06814834742186 31.09002599999999 14.01763809020504
vertex 48.26794919243112 30.0 14.499999999999998
vertex 48.06814834742186 30.0 14.01763809020504
endloop
endfacet
facet normal 0.8660254037844369 0.0 -0.500000000000003
outer loop
vertex 48.26794919243112 30.0 14.499999999999998
vertex 48.06814834742186 31.09002599999999 14.01763809020504
vertex 48.26794919243112 31.09002599999999 14.499999999999998
endloop
endfacet
facet normal 1.0 0.0 4.9991326514579096e-15
outer loop
vertex 48.0 31.09002599999999 13.5
vertex 48.06814834742186 30.0 14.01763809020504
vertex 48.0 30.0 13.5
endloop
endfacet
facet normal 0.9659258262890694 0.0 -0.2588190451025167
outer loop
vertex 48.06814834742186 30.0 14.01763809020504
vertex 48.0 31.09002599999999 13.5
vertex 48.06814834742186 31.09002599999999 14.01763809020504
endloop
endfacet
facet normal 0.9659258262890694 0.0 0.25881904510251663
outer loop
vertex 48.06814834742187 31.09002599999999 12.982361909794959
vertex 48.0 30.0 13.5
vertex 48.06814834742187 30.0 12.982361909794959
endloop
endfacet
facet normal 1.0 0.0 4.9991326514579096e-15
outer loop
vertex 48.0 30.0 13.5
vertex 48.06814834742187 31.09002599999999 12.982361909794959
vertex 48.0 31.09002599999999 13.5
endloop
endfacet
facet normal 0.8660254037844394 0.0 0.4999999999999986
outer loop
vertex 48.26794919243112 31.09002599999999 12.5
vertex 48.06814834742187 30.0 12.982361909794959
vertex 48.26794919243112 30.0 12.5
endloop
endfacet
facet normal 0.9659258262890694 0.0 0.25881904510251663
outer loop
vertex 48.06814834742187 30.0 12.982361909794959
vertex 48.26794919243112 31.09002599999999 12.5
vertex 48.06814834742187 31.09002599999999 12.982361909794959
endloop
endfacet
facet normal 0.7071067811865452 0.0 0.7071067811865498
outer loop
vertex 48.58578643762691 31.09002599999999 12.085786437626904
vertex 48.26794919243112 30.0 12.5
vertex 48.58578643762691 30.0 12.085786437626904
endloop
endfacet
facet normal 0.8660254037844394 0.0 0.4999999999999986
outer loop
vertex 48.26794919243112 30.0 12.5
vertex 48.58578643762691 31.09002599999999 12.085786437626904
vertex 48.26794919243112 31.09002599999999 12.5
endloop
endfacet
facet normal 0.49999999999999917 0.0 0.8660254037844393
outer loop
vertex 49.0 30.0 11.767949192431123
vertex 48.58578643762691 31.09002599999999 12.085786437626904
vertex 48.58578643762691 30.0 12.085786437626904
endloop
endfacet
facet normal 0.7071067811865452 0.0 0.7071067811865498
outer loop
vertex 48.58578643762691 31.09002599999999 12.085786437626904
vertex 49.0 30.0 11.767949192431123
vertex 49.0 31.09002599999999 11.767949192431123
endloop
endfacet
endsolid 칼통
